<?xml version="1.0" encoding="UTF-8"?>
<svg width="128px" height="128px" viewBox="0 0 128 128" version="1.1" xmlns="http://www.w3.org/2000/svg" xmlns:xlink="http://www.w3.org/1999/xlink">
    <title>Artboard</title>
    <g id="Artboard" stroke="none" stroke-width="1" fill="none" fill-rule="evenodd">
        <rect fill="#03414C" x="0" y="0" width="128" height="128"></rect>
        <g id="logo-(1)" transform="translate(27.000000, 29.000000)" fill="#FFFFFF" fill-rule="nonzero">
            <path d="M50.0825201,2.31380641 C52.4401411,2.26275371 54.7883786,2.62494406 57.0195896,3.3837747 C58.6128438,3.83119606 59.9780729,4.85883727 60.8433195,6.26198938 C61.6105624,8.29020477 61.9317065,10.4583026 61.7851249,12.6202759 L61.7851249,53.5465627 L21.1206587,0 L0.861079219,0 L0.861079219,2.32183117 C3.2607541,2.15543787 5.67113277,2.41170898 7.98112801,3.07883373 C9.22335783,3.83112161 10.0741714,5.08415014 10.3114237,6.510757 C10.9391435,9.98973019 11.183662,13.5263383 11.0406501,17.0579694 L11.0406501,53.3432688 C11.15501,55.9767684 10.9944941,58.6149593 10.5616748,61.2155604 C9.98079818,62.6049762 8.8814688,63.7169607 7.49408008,64.3184684 C5.15172253,65.4364993 2.59755571,66.0482357 0,66.1133402 L0,68.4324965 L25.6224885,68.4324965 L25.6224885,66.1133402 C22.7997381,66.2848497 19.9790107,65.7466793 17.420709,64.5485116 C15.9219401,63.8572397 14.7381624,62.6327602 14.1028631,61.1165883 C13.5945994,58.5591381 13.3985433,55.950076 13.5189437,53.3459437 L13.5189437,5.85807635 L62.0838117,70 L64.2634185,70 L64.2634185,13.3772785 C64.1598874,11.2767797 64.3914772,9.17322943 64.949591,7.14471321 C65.5802597,5.73444766 66.7185817,4.60955256 68.1409658,3.9909817 C70.2949827,2.99296789 72.6257277,2.42668851 75,2.32450609 L75,0.00267492071 L50.085211,0.00267492071 L50.0825201,2.31380641 Z" id="Path_12"></path>
        </g>
        <g id="Group" transform="translate(0.000000, 72.000000)" opacity="0.3" stroke="#ADD8CC" stroke-dasharray="2008.87">
            <path d="M0,0 C73.1985584,0 103.251498,56.7346939 184.107044,56.9988412 C264.962591,57.2629884 301.665602,12.2818624 379,11.6057243" id="Path_560"></path>
            <path d="M0,5 C73.1985584,5 103.251498,61.7346939 184.107044,61.9988412 C264.962591,62.2629884 301.665602,17.2818624 379,16.6057243" id="Path_561"></path>
            <path d="M0,11 C73.1985584,11 103.251498,67.7346939 184.107044,67.9988412 C264.962591,68.2629884 301.665602,23.2818624 379,22.6057243" id="Path_562"></path>
            <path d="M0,16 C73.1985584,16 103.251498,72.7346939 184.107044,72.9988412 C264.962591,73.2629884 301.665602,28.2818624 379,27.6057243" id="Path_563"></path>
            <path d="M0,21 C73.1985584,21 103.251498,77.7346939 184.107044,77.9988412 C264.962591,78.2629884 301.665602,33.2818624 379,32.6057243" id="Path_564"></path>
            <path d="M0,27 C73.1985584,27 103.251498,83.7346939 184.107044,83.9988412 C264.962591,84.2629884 301.665602,39.2818624 379,38.6057243" id="Path_565"></path>
            <path d="M0,32 C73.1985584,32 103.251498,88.7346939 184.107044,88.9988412 C264.962591,89.2629884 301.665602,44.2818624 379,43.6057243" id="Path_566"></path>
            <path d="M0,37 C73.1985584,37 103.251498,93.7346939 184.107044,93.9988412 C264.962591,94.2629884 301.665602,49.2818624 379,48.6057243" id="Path_567"></path>
            <path d="M0,43 C73.1985584,43 103.251498,99.7346939 184.107044,99.9988412 C264.962591,100.262988 301.665602,55.2818624 379,54.6057243" id="Path_568"></path>
            <path d="M0,48 C73.1985584,48 103.251498,104.734694 184.107044,104.998841 C264.962591,105.262988 301.665602,60.2818624 379,59.6057243" id="Path_569"></path>
        </g>
    </g>
</svg>