<?xml version="1.0" encoding="UTF-8"?>
<svg width="322px" height="53px" viewBox="0 0 322 53" version="1.1" xmlns="http://www.w3.org/2000/svg" xmlns:xlink="http://www.w3.org/1999/xlink">
    <title>nhbot-logo</title>
    <g id="nhbot-logo" stroke="none" stroke-width="1" fill="none" fill-rule="evenodd">
        <g id="Group" transform="translate(0.416000, 0.440000)" fill="#FFFFFF" fill-rule="nonzero">
            <g id="N-HBOT">
                <path d="M58.536,1.44 L58.536,0.72 L40.68,0.72 L40.68,1.44 C42.984,1.776 44.748,2.364 45.972,3.204 C47.196,4.044 48.048,5.136 48.528,6.48 C48.912,7.488 49.128,8.868 49.176,10.62 C49.224,12.372 49.248,14.208 49.248,16.128 L49.248,40.608 L15.12,0.72 L0.504,0.72 L0.504,1.44 C1.272,1.536 2.076,1.692 2.916,1.908 C3.756,2.124 4.536,2.484 5.256,2.988 C5.976,3.492 6.6,4.188 7.128,5.076 C7.656,5.964 7.992,7.104 8.136,8.496 C8.184,9.888 8.208,11.064 8.208,12.024 C8.208,12.936 8.208,13.824 8.208,14.688 C8.208,15.552 8.208,16.44 8.208,17.352 C8.208,18.264 8.208,19.416 8.208,20.808 C8.208,24.024 8.184,27.036 8.136,29.844 C8.088,32.652 8.016,35.088 7.92,37.152 C7.824,39.888 7.68,42.24 7.488,44.208 C7.296,46.176 6.864,47.664 6.192,48.672 C5.52,49.728 4.608,50.484 3.456,50.94 C2.304,51.396 1.152,51.696 0,51.84 L0,52.56 L17.712,52.56 L17.712,51.84 C15.744,51.6 14.196,51.204 13.068,50.652 C11.94,50.1 11.112,49.272 10.584,48.168 C10.104,47.208 9.804,45.744 9.684,43.776 C9.564,41.808 9.504,39.6 9.504,37.152 L9.504,6.768 C12.768,10.416 15.864,13.944 18.792,17.352 C21.72,20.76 24.708,24.252 27.756,27.828 C30.804,31.404 34.008,35.16 37.368,39.096 C40.728,43.032 44.448,47.352 48.528,52.056 C49.008,52.536 49.44,52.776 49.824,52.776 C50.064,52.776 50.244,52.716 50.364,52.596 C50.484,52.476 50.544,52.32 50.544,52.128 C50.544,50.736 50.544,49.176 50.544,47.448 C50.544,45.72 50.532,43.98 50.508,42.228 C50.484,40.476 50.472,38.76 50.472,37.08 C50.472,35.352 50.472,33.816 50.472,32.472 C50.472,29.256 50.508,26.244 50.58,23.436 C50.652,20.628 50.736,18.192 50.832,16.128 C50.928,13.92 51.024,11.844 51.12,9.9 C51.216,7.956 51.432,6.624 51.768,5.904 C52.344,4.512 53.172,3.48 54.252,2.808 C55.332,2.136 56.76,1.68 58.536,1.44 Z" id="Path"></path>
                <path d="M152.064,52.56 L152.064,51.84 C150.816,51.696 149.664,51.432 148.608,51.048 C147.552,50.664 146.712,49.992 146.088,49.032 C145.8,48.6 145.62,47.796 145.548,46.62 C145.476,45.444 145.44,44.16 145.44,42.768 C145.44,41.04 145.428,39.456 145.404,38.016 C145.38,36.576 145.368,35.184 145.368,33.84 C145.368,32.448 145.368,31.056 145.368,29.664 C145.368,28.224 145.368,26.616 145.368,24.84 L145.368,12.528 C145.368,11.808 145.368,11.064 145.368,10.296 C145.368,9.528 145.392,8.772 145.44,8.028 C145.488,7.284 145.56,6.612 145.656,6.012 C145.752,5.412 145.896,4.944 146.088,4.608 C146.616,3.648 147.432,2.916 148.536,2.412 C149.64,1.908 150.768,1.584 151.92,1.44 L151.92,0.72 L130.248,0.72 L130.248,1.44 C131.352,1.488 132.456,1.668 133.56,1.98 C134.664,2.292 135.648,3.096 136.512,4.392 C136.896,5.016 137.124,5.82 137.196,6.804 C137.268,7.788 137.328,8.736 137.376,9.648 C137.424,11.232 137.448,12.648 137.448,13.896 C137.448,15.144 137.448,16.368 137.448,17.568 C137.448,18.768 137.448,20.016 137.448,21.312 C137.448,22.56 137.448,23.952 137.448,25.488 L109.008,25.488 C109.008,25.008 109.008,24.12 109.008,22.824 C109.008,21.48 109.008,19.944 109.008,18.216 C109.008,16.44 109.02,14.58 109.044,12.636 C109.068,10.692 109.104,8.88 109.152,7.2 C109.2,6.096 109.44,5.184 109.872,4.464 C110.304,3.744 110.832,3.18 111.456,2.772 C112.08,2.364 112.776,2.064 113.544,1.872 C114.312,1.68 115.032,1.536 115.704,1.44 L115.704,0.72 L94.248,0.72 L94.248,1.44 C95.496,1.584 96.612,1.836 97.596,2.196 C98.58,2.556 99.408,3.144 100.08,3.96 C100.368,4.296 100.584,4.764 100.728,5.364 C100.872,5.964 100.98,6.636 101.052,7.38 C101.124,8.124 101.16,8.928 101.16,9.792 C101.16,10.656 101.16,11.52 101.16,12.384 L101.16,26.424 C101.16,27.72 101.16,29.112 101.16,30.6 C101.16,32.04 101.148,33.444 101.124,34.812 C101.1,36.18 101.076,37.44 101.052,38.592 C101.028,39.744 101.016,40.656 101.016,41.328 C101.016,42.096 100.992,42.9 100.944,43.74 C100.896,44.58 100.836,45.36 100.764,46.08 C100.692,46.8 100.596,47.436 100.476,47.988 C100.356,48.54 100.2,48.936 100.008,49.176 C99.432,49.848 98.592,50.412 97.488,50.868 C96.384,51.324 95.232,51.648 94.032,51.84 L94.032,52.56 L115.272,52.56 L115.272,51.84 C114.264,51.744 113.232,51.48 112.176,51.048 C111.12,50.616 110.304,49.992 109.728,49.176 C109.344,48.648 109.128,47.736 109.08,46.44 C109.032,45.144 109.008,43.8 109.008,42.408 L109.008,26.928 L137.448,26.928 C137.448,27.408 137.448,28.248 137.448,29.448 C137.448,30.6 137.448,31.944 137.448,33.48 C137.448,34.968 137.448,36.576 137.448,38.304 C137.448,39.984 137.424,41.616 137.376,43.2 C137.376,43.776 137.364,44.376 137.34,45 C137.316,45.624 137.28,46.224 137.232,46.8 C137.184,47.376 137.124,47.88 137.052,48.312 C136.98,48.744 136.896,49.032 136.8,49.176 C136.416,49.8 135.624,50.364 134.424,50.868 C133.224,51.372 131.736,51.696 129.96,51.84 L129.96,52.56 L152.064,52.56 Z" id="Path"></path>
                <path d="M204.912,38.376 C204.912,36.456 204.516,34.74 203.724,33.228 C202.932,31.716 201.876,30.408 200.556,29.304 C199.236,28.2 197.736,27.324 196.056,26.676 C194.376,26.028 192.672,25.608 190.944,25.416 L190.944,25.128 C194.208,24.456 196.86,23.148 198.9,21.204 C200.94,19.26 201.96,16.704 201.96,13.536 C201.96,10.656 201.168,8.28 199.584,6.408 C198,4.536 195.984,3.144 193.536,2.232 C192,1.656 190.404,1.26 188.748,1.044 C187.092,0.828 185.352,0.72 183.528,0.72 L159.264,0.72 L159.264,1.44 C160.56,1.584 161.568,1.788 162.288,2.052 C163.008,2.316 163.728,2.832 164.448,3.6 C164.736,3.888 164.964,4.356 165.132,5.004 C165.3,5.652 165.444,6.384 165.564,7.2 C165.684,8.016 165.768,8.868 165.816,9.756 C165.864,10.644 165.888,11.52 165.888,12.384 C165.888,13.824 165.9,15.096 165.924,16.2 C165.948,17.304 165.96,18.384 165.96,19.44 C165.96,20.448 165.96,21.504 165.96,22.608 C165.96,23.712 165.96,24.984 165.96,26.424 C165.96,27.72 165.96,29.112 165.96,30.6 C165.96,32.04 165.948,33.444 165.924,34.812 C165.9,36.18 165.876,37.44 165.852,38.592 C165.828,39.744 165.816,40.656 165.816,41.328 C165.816,42.096 165.792,42.876 165.744,43.668 C165.696,44.46 165.612,45.216 165.492,45.936 C165.372,46.656 165.24,47.292 165.096,47.844 C164.952,48.396 164.76,48.816 164.52,49.104 C163.848,49.872 162.972,50.472 161.892,50.904 C160.812,51.336 159.672,51.648 158.472,51.84 L158.472,52.56 L183.312,52.56 C185.424,52.56 187.608,52.488 189.864,52.344 C192.12,52.2 194.16,51.792 195.984,51.12 C197.04,50.736 198.096,50.172 199.152,49.428 C200.208,48.684 201.168,47.784 202.032,46.728 C202.896,45.672 203.592,44.448 204.12,43.056 C204.648,41.664 204.912,40.104 204.912,38.376 Z M193.68,13.536 C193.68,16.8 192.564,19.536 190.332,21.744 C188.1,23.952 184.824,25.176 180.504,25.416 C179.832,25.464 178.944,25.488 177.84,25.488 C176.736,25.488 175.392,25.488 173.808,25.488 C173.808,25.248 173.808,24.48 173.808,23.184 C173.808,21.888 173.808,20.352 173.808,18.576 C173.808,16.752 173.82,14.832 173.844,12.816 C173.868,10.8 173.904,8.952 173.952,7.272 C174,6.408 174.036,5.712 174.06,5.184 C174.084,4.656 174.108,4.212 174.132,3.852 C174.156,3.492 174.192,3.192 174.24,2.952 C174.288,2.712 174.336,2.448 174.384,2.16 C174.816,2.016 175.44,1.896 176.256,1.8 C177.072,1.704 177.984,1.656 178.992,1.656 C182.352,1.656 185.112,2.136 187.272,3.096 C189.096,3.912 190.62,5.256 191.844,7.128 C193.068,9 193.68,11.136 193.68,13.536 Z M196.488,39.168 C196.488,41.616 195.936,43.716 194.832,45.468 C193.728,47.22 192.168,48.624 190.152,49.68 C188.616,50.496 187.032,51 185.4,51.192 C183.768,51.384 182.256,51.48 180.864,51.48 C179.232,51.48 177.984,51.3 177.12,50.94 C176.256,50.58 175.608,50.136 175.176,49.608 C174.6,48.84 174.252,47.868 174.132,46.692 C174.012,45.516 173.928,44.016 173.88,42.192 C173.88,41.376 173.868,40.404 173.844,39.276 C173.82,38.148 173.808,36.912 173.808,35.568 C173.808,34.176 173.808,32.712 173.808,31.176 C173.808,29.64 173.808,28.104 173.808,26.568 L180.792,26.568 C182.184,26.568 183.396,26.628 184.428,26.748 C185.46,26.868 186.504,27.096 187.56,27.432 C188.856,27.864 190.044,28.452 191.124,29.196 C192.204,29.94 193.14,30.828 193.932,31.86 C194.724,32.892 195.348,34.02 195.804,35.244 C196.26,36.468 196.488,37.776 196.488,39.168 Z" id="Shape"></path>
                <path d="M265.392,26.28 C265.392,22.824 264.792,19.512 263.592,16.344 C262.392,13.176 260.664,10.38 258.408,7.956 C256.152,5.532 253.404,3.6 250.164,2.16 C246.924,0.72 243.264,0 239.184,0 C235.44,0 231.876,0.612 228.492,1.836 C225.108,3.06 222.156,4.812 219.636,7.092 C217.116,9.372 215.112,12.156 213.624,15.444 C212.136,18.732 211.392,22.44 211.392,26.568 C211.392,30.456 212.1,34.02 213.516,37.26 C214.932,40.5 216.864,43.284 219.312,45.612 C221.76,47.94 224.616,49.74 227.88,51.012 C231.144,52.284 234.6,52.92 238.248,52.92 C241.944,52.92 245.436,52.272 248.724,50.976 C252.012,49.68 254.892,47.832 257.364,45.432 C259.836,43.032 261.792,40.2 263.232,36.936 C264.672,33.672 265.392,30.12 265.392,26.28 Z M256.464,26.352 C256.464,29.376 256.092,32.4 255.348,35.424 C254.604,38.448 253.488,41.172 252,43.596 C250.512,46.02 248.652,48 246.42,49.536 C244.188,51.072 241.56,51.84 238.536,51.84 C235.512,51.84 232.86,51.144 230.58,49.752 C228.3,48.36 226.404,46.512 224.892,44.208 C223.38,41.904 222.24,39.24 221.472,36.216 C220.704,33.192 220.32,30.048 220.32,26.784 C220.32,23.664 220.668,20.58 221.364,17.532 C222.06,14.484 223.14,11.76 224.604,9.36 C226.068,6.96 227.94,5.004 230.22,3.492 C232.5,1.98 235.2,1.224 238.32,1.224 C241.392,1.224 244.056,1.98 246.312,3.492 C248.568,5.004 250.452,6.972 251.964,9.396 C253.476,11.82 254.604,14.52 255.348,17.496 C256.092,20.472 256.464,23.424 256.464,26.352 Z" id="Shape"></path>
                <path d="M321.48,14.04 L319.176,0 C318.072,0.336 317.004,0.612 315.972,0.828 C314.94,1.044 313.632,1.176 312.048,1.224 C310.224,1.224 308.592,1.236 307.152,1.26 C305.712,1.284 304.32,1.308 302.976,1.332 C301.632,1.356 300.24,1.368 298.8,1.368 C297.408,1.368 295.824,1.368 294.048,1.368 C292.272,1.368 290.664,1.368 289.224,1.368 C287.832,1.368 286.464,1.368 285.12,1.368 C283.776,1.368 282.384,1.356 280.944,1.332 C279.504,1.308 277.872,1.272 276.048,1.224 C274.272,1.176 272.916,1.08 271.98,0.936 C271.044,0.792 270.024,0.6 268.92,0.36 L266.76,14.04 L267.408,14.256 C267.696,13.392 268.092,12.504 268.596,11.592 C269.1,10.68 269.628,9.828 270.18,9.036 C270.732,8.244 271.26,7.512 271.764,6.84 C272.268,6.168 272.712,5.664 273.096,5.328 C274.104,4.368 275.196,3.696 276.372,3.312 C277.548,2.928 279.048,2.712 280.872,2.664 C281.784,2.664 282.588,2.652 283.284,2.628 C283.98,2.604 284.64,2.592 285.264,2.592 C285.936,2.592 286.632,2.592 287.352,2.592 C288.12,2.592 289.008,2.592 290.016,2.592 L290.016,26.424 C290.016,27.72 290.016,29.088 290.016,30.528 C290.016,31.968 290.004,33.36 289.98,34.704 C289.956,36.048 289.932,37.272 289.908,38.376 C289.884,39.48 289.872,40.368 289.872,41.04 C289.872,41.808 289.86,42.6 289.836,43.416 C289.812,44.232 289.764,44.988 289.692,45.684 C289.62,46.38 289.524,47.004 289.404,47.556 C289.284,48.108 289.104,48.504 288.864,48.744 C287.76,49.992 286.632,50.784 285.48,51.12 C284.328,51.456 283.128,51.696 281.88,51.84 L281.88,52.56 L305.28,52.56 L305.28,51.84 C304.224,51.648 303.036,51.36 301.716,50.976 C300.396,50.592 299.376,49.872 298.656,48.816 C298.272,48.288 298.044,47.388 297.972,46.116 C297.9,44.844 297.864,43.512 297.864,42.12 L297.864,26.136 C297.864,24.648 297.864,22.824 297.864,20.664 C297.864,18.456 297.864,16.224 297.864,13.968 C297.864,11.712 297.876,9.552 297.9,7.488 C297.924,5.424 297.936,3.792 297.936,2.592 C298.992,2.592 299.88,2.592 300.6,2.592 C301.368,2.592 302.064,2.592 302.688,2.592 C303.36,2.592 304.032,2.604 304.704,2.628 C305.376,2.652 306.168,2.664 307.08,2.664 C308.904,2.712 310.404,2.892 311.58,3.204 C312.756,3.516 313.848,4.152 314.856,5.112 C315.24,5.448 315.696,5.964 316.224,6.66 C316.752,7.356 317.292,8.112 317.844,8.928 C318.396,9.744 318.936,10.62 319.464,11.556 C319.992,12.492 320.448,13.392 320.832,14.256 L321.48,14.04 Z" id="Path"></path>
            </g>
            <path d="M86.632,28.42 C84.6423329,29.3023087 82.3783392,29.3322978 80.366,28.503 C79.0762544,27.9156968 77.7505999,27.4106856 76.397,26.991 C75.1089919,26.5561517 73.7285865,26.4712567 72.397,26.745 C71.902937,26.8468958 71.4192488,26.9938433 70.952,27.184 C69.7325985,27.6774949 68.6637769,28.4818693 67.852,29.517 C66.9610463,30.6222171 66.390647,31.9508426 66.203,33.358 C68.0676237,29.5512176 72.5601865,27.8365823 76.487,29.433 C78.253,30.108 79.338,30.633 80.487,30.952 C82.7377356,31.6165243 85.1662925,31.2677292 87.1390278,29.99662 C89.1117631,28.7255108 90.4329963,26.658172 90.758,24.334 C89.9449281,26.1660497 88.4718834,27.6248138 86.632,28.42 L86.632,28.42 Z" id="Path_16"></path>
        </g>
    </g>
</svg>