<?xml version="1.0" standalone="no"?>
<!DOCTYPE svg PUBLIC "-//W3C//DTD SVG 20010904//EN"
 "http://www.w3.org/TR/2001/REC-SVG-20010904/DTD/svg10.dtd">
<svg version="1.0" xmlns="http://www.w3.org/2000/svg"
 width="700.000000pt" height="700.000000pt" viewBox="0 0 700.000000 700.000000"
 preserveAspectRatio="xMidYMid meet">
<metadata>
Created by potrace 1.14, written by Peter Selinger 2001-2017
</metadata>
<g transform="translate(0.000000,700.000000) scale(0.100000,-0.100000)"
fill="#000000" stroke="none">
<path d="M0 3500 l0 -3500 3500 0 3500 0 0 3500 0 3500 -3500 0 -3500 0 0
-3500z m4852 2711 c365 -63 659 -220 920 -489 218 -226 360 -495 430 -815 20
-89 23 -131 23 -327 0 -246 -12 -327 -74 -518 -159 -487 -565 -893 -1051
-1052 -192 -63 -273 -74 -520 -74 -195 0 -238 3 -327 22 -337 73 -598 215
-839 456 -241 242 -382 500 -456 839 -20 89 -23 131 -23 327 0 196 3 238 23
327 70 320 212 589 430 814 257 267 555 426 917 490 144 25 398 25 547 0z
m-2903 -2471 c251 -26 467 -127 648 -303 440 -427 436 -1131 -10 -1553 -161
-154 -363 -253 -576 -285 -117 -17 -325 -7 -428 20 -380 99 -673 387 -780 766
-36 129 -43 359 -15 495 44 212 134 381 287 536 55 56 128 120 163 143 139 93
328 163 487 180 115 12 113 12 224 1z m2673 -1629 c254 -65 444 -261 502 -518
34 -152 14 -302 -59 -451 -78 -158 -217 -279 -387 -339 -107 -38 -282 -44
-393 -14 -194 53 -351 181 -438 356 -50 99 -70 183 -70 295 -1 125 15 195 70
310 39 81 58 108 133 181 137 137 279 197 471 198 64 1 121 -5 171 -18z"/>
</g>
</svg>
